<svg width="6254" height="6282" viewBox="0 0 6254 6282" fill="none" xmlns="http://www.w3.org/2000/svg">
<path fill-rule="evenodd" clip-rule="evenodd" d="M5485.52 5231.29C4910.28 5876.04 4073.05 6282 3141 6282C1406.27 6282 0 4875.73 0 3141C0 1406.27 1406.27 0 3141 0C3707.97 0 4239.85 150.22 4699.02 413.03C4596.95 434.428 4500.85 480.2 4419.3 547.268L3206.39 1544.66V561.485C3206.39 518.391 3189.26 477.063 3158.77 446.591C3128.29 416.119 3086.94 399 3043.82 399H2285.16C2242.04 399 2200.69 416.119 2170.2 446.591C2139.71 477.063 2122.58 518.391 2122.58 561.485V2436.97L990.009 3370.04C973.389 3383.55 959.603 3400.2 949.443 3419.05C939.285 3437.9 932.954 3458.57 930.813 3479.87C928.673 3501.18 930.767 3522.69 936.973 3543.18C943.179 3563.67 953.376 3582.74 966.978 3599.28L1312.44 4019.03C1326.05 4035.48 1342.76 4049.1 1361.63 4059.09C1380.51 4069.09 1401.16 4075.26 1422.43 4077.28C1443.69 4079.29 1465.14 4077.09 1485.55 4070.82C1505.96 4064.54 1524.94 4054.31 1541.39 4040.7L4728.19 1417.38C4757.55 1393.72 4794.12 1380.83 4831.83 1380.83C4869.54 1380.83 4906.11 1393.72 4935.47 1417.38L6209.3 2466.02C6227.18 2547.67 6241.88 2630.51 6253.27 2714.4L4938.36 1631.56C4909.01 1607.9 4872.44 1595 4834.73 1595C4797.02 1595 4760.45 1607.9 4731.1 1631.56L2234 3686.89V5908.28C2234 5965.76 2256.84 6020.88 2297.48 6061.52C2338.13 6102.17 2393.26 6125 2450.75 6125L3968.27 6120.8C3996.79 6120.8 4025.03 6115.17 4051.38 6104.24C4077.72 6093.31 4101.64 6077.28 4121.78 6057.09C4141.91 6036.89 4157.86 6012.92 4168.72 5986.55C4179.57 5960.17 4185.11 5931.92 4185.02 5903.4V4607.95C4185.02 4550.48 4207.86 4495.35 4248.51 4454.71C4289.15 4414.07 4344.29 4391.23 4401.77 4391.23H5268.77C5326.26 4391.23 5381.39 4414.07 5422.04 4454.71C5462.68 4495.35 5485.52 4550.48 5485.52 4607.95V5231.29Z" fill="#E8DDC3"/>
</svg>
